<?xml version="1.0" standalone="no"?>
<!DOCTYPE svg PUBLIC "-//W3C//DTD SVG 20010904//EN"
 "http://www.w3.org/TR/2001/REC-SVG-20010904/DTD/svg10.dtd">
<svg version="1.0" xmlns="http://www.w3.org/2000/svg"
 width="660.000000pt" height="660.000000pt" viewBox="0 0 660.000000 660.000000"
 preserveAspectRatio="xMidYMid meet">
<metadata>
Created by potrace 1.14, written by Peter Selinger 2001-2017
</metadata>
<g transform="translate(0.000000,660.000000) scale(0.100000,-0.100000)"
fill="#000000" stroke="none">
<path d="M805 6343 c-39 -4 -101 -22 -145 -41 -19 -9 -40 -17 -47 -18 -44 -8
-175 -124 -230 -206 -33 -47 -78 -154 -89 -208 -10 -52 -6 -213 5 -243 6 -15
9 -27 6 -27 -2 0 7 -26 19 -59 28 -71 89 -162 145 -216 48 -47 154 -114 194
-122 15 -3 27 -10 27 -16 0 -6 3 -8 6 -5 3 3 29 -1 57 -8 30 -9 87 -14 137
-12 155 4 292 62 401 169 37 36 70 75 73 87 4 12 11 22 15 22 4 0 16 18 26 40
10 22 21 40 24 41 3 1 27 3 53 5 41 3 48 1 54 -18 4 -13 7 -215 7 -451 0 -295
3 -430 11 -434 6 -4 441 -7 967 -8 527 0 961 -4 966 -8 10 -11 13 -2502 2
-2519 -6 -10 -60 -13 -231 -14 -123 -1 -230 2 -239 7 -15 8 -16 68 -16 639
l-1 631 37 22 c20 13 48 28 62 36 36 18 128 109 164 162 16 24 34 47 38 50 5
3 8 9 8 13 -1 3 6 23 15 44 52 120 53 377 2 440 -6 6 -8 12 -5 12 8 0 -50 105
-72 133 -59 73 -138 139 -204 171 -98 46 -149 59 -252 62 -101 3 -154 -6 -245
-43 -52 -21 -140 -74 -140 -85 0 -5 -4 -8 -9 -8 -9 0 -58 -48 -99 -97 -11 -13
-30 -44 -43 -70 -13 -27 -28 -51 -32 -54 -5 -3 -8 -10 -7 -15 1 -5 -6 -36 -16
-69 -9 -33 -17 -94 -17 -135 0 -70 4 -101 18 -173 8 -40 61 -149 85 -174 11
-12 20 -26 20 -31 0 -9 83 -89 126 -122 10 -8 40 -26 67 -39 32 -17 47 -31 48
-45 1 -12 2 -392 3 -846 1 -454 5 -834 9 -845 7 -21 13 -21 453 -20 245 0 454
-3 464 -7 15 -6 18 -17 17 -70 -1 -35 -5 -68 -10 -75 -4 -6 -31 -25 -61 -41
-66 -38 -136 -101 -184 -167 -21 -27 -37 -52 -37 -55 -1 -3 -10 -23 -22 -46
-59 -112 -74 -318 -30 -424 6 -14 11 -28 11 -32 1 -3 4 -10 9 -14 4 -4 7 -14
7 -21 0 -36 115 -179 192 -238 46 -36 161 -87 228 -101 70 -15 192 -11 259 8
36 10 73 20 82 22 10 3 35 16 58 30 22 14 45 26 50 26 15 0 161 150 161 166 0
8 4 14 8 14 11 0 50 86 72 161 29 94 24 265 -9 344 -41 94 -57 125 -82 157
-16 20 -29 42 -29 47 0 6 -4 11 -10 11 -5 0 -22 12 -37 28 -36 35 -99 82 -111
82 -6 0 -23 12 -40 28 l-29 27 0 1550 c-1 853 3 1557 7 1565 8 13 85 15 600
16 l591 0 25 -24 c13 -14 24 -30 24 -36 0 -19 60 -96 118 -153 53 -51 132
-103 158 -103 8 0 14 -4 14 -8 0 -10 74 -32 146 -41 219 -30 438 65 566 246
32 44 67 111 67 128 0 3 8 19 16 35 8 16 15 31 14 32 0 2 2 23 6 48 28 188
-30 372 -159 504 -28 29 -67 64 -86 77 -19 12 -37 26 -40 29 -19 23 -120 57
-220 74 -85 14 -221 0 -288 -30 -101 -45 -122 -56 -122 -65 0 -5 -5 -9 -11 -9
-6 0 -17 -7 -25 -15 -8 -8 -21 -18 -27 -22 -19 -12 -117 -128 -117 -139 0 -5
-11 -26 -25 -47 -24 -34 -29 -37 -75 -37 -45 0 -50 2 -51 23 -1 12 -3 214 -3
449 -1 235 -6 431 -10 435 -4 4 -815 8 -1801 9 -1833 1 -1825 1 -1825 35 0 14
-66 112 -97 144 -35 36 -123 110 -132 110 -3 1 -32 13 -63 28 -32 14 -68 28
-80 31 -13 2 -30 7 -38 10 -18 7 -154 13 -195 9z m133 -375 c26 -6 53 -16 60
-22 120 -95 138 -240 42 -345 -20 -23 -43 -41 -51 -41 -8 0 -21 -6 -28 -12 -7
-8 -39 -13 -84 -13 -59 0 -79 5 -104 23 -17 12 -35 22 -40 22 -15 1 -60 75
-70 117 -10 38 -10 74 0 124 9 50 80 121 141 142 53 19 77 20 134 5z m3656
-457 c7 -21 6 -410 0 -433 -5 -17 -76 -18 -1299 -18 -858 0 -1296 3 -1300 10
-8 14 -9 411 -1 437 l7 21 1294 0 c1193 0 1295 -1 1299 -17z m1201 -467 c95
-38 153 -152 132 -256 -8 -40 -49 -106 -74 -119 -13 -7 -23 -16 -23 -21 0 -4
-6 -8 -14 -8 -7 0 -25 -6 -39 -13 -13 -7 -40 -12 -58 -11 -19 1 -45 2 -59 3
-45 2 -123 60 -147 110 -31 62 -35 139 -12 191 10 22 18 43 18 46 0 2 15 17
33 32 18 15 35 29 38 32 4 5 76 28 105 34 12 3 75 -9 100 -20z m-2941 -925
c45 -12 111 -76 134 -128 17 -41 19 -130 2 -160 -6 -12 -8 -21 -5 -21 5 0 -7
-14 -52 -66 -33 -38 -112 -67 -168 -62 -59 6 -135 37 -135 56 0 7 -4 11 -9 7
-5 -3 -12 4 -16 15 -3 11 -10 20 -15 20 -27 0 -48 173 -24 211 4 8 9 19 10 25
4 26 73 82 124 102 55 21 78 21 154 1z m940 -2990 c76 -21 142 -112 150 -208
3 -43 -27 -125 -57 -154 -65 -65 -159 -90 -241 -65 -43 14 -108 71 -131 118
-23 44 -23 142 -1 190 20 45 78 102 119 117 41 15 111 16 161 2z"/>
</g>
</svg>
